<svg width="14" height="13" viewBox="0 0 14 13" fill="none" xmlns="http://www.w3.org/2000/svg">
<path fill-rule="evenodd" clip-rule="evenodd" d="M13.4 6.4471C13.4 6.87992 13.3559 7.31213 13.2694 7.73345C13.185 8.14475 13.06 8.54856 12.8962 8.93457C12.7362 9.31376 12.5378 9.67917 12.3059 10.0199C12.0774 10.3586 11.8143 10.6762 11.5252 10.9658C11.2355 11.2542 10.9167 11.5166 10.5783 11.746C10.2364 11.9763 9.87047 12.1744 9.49106 12.3352C9.10448 12.4981 8.69975 12.6229 8.2888 12.7071C7.86693 12.7939 7.43313 12.8382 6.99969 12.8382C6.56592 12.8382 6.13215 12.7939 5.71088 12.7071C5.2993 12.6229 4.89459 12.4981 4.50832 12.3352C4.12893 12.1744 3.76264 11.9763 3.42076 11.746C3.0823 11.5166 2.76354 11.2542 2.47446 10.9658C2.18508 10.6762 1.92193 10.3586 1.69317 10.0199C1.46253 9.67917 1.26376 9.31374 1.10313 8.93457C0.939356 8.54856 0.814055 8.14473 0.72936 7.73345C0.643738 7.31213 0.599976 6.87992 0.599976 6.4471C0.599976 6.01395 0.643713 5.58081 0.729385 5.16042C0.81408 4.74911 0.939381 4.34469 1.10316 3.95929C1.26378 3.57983 1.46256 3.2141 1.69319 2.87331C1.92195 2.53442 2.18511 2.21734 2.47449 1.92742C2.76357 1.63906 3.08233 1.37726 3.42078 1.14821C3.76267 0.916955 4.12895 0.718818 4.50834 0.557777C4.89462 0.394535 5.2993 0.269415 5.7109 0.185792C6.13217 0.0996689 6.56594 0.0559692 6.99971 0.0559692C7.43316 0.0559692 7.86693 0.0996689 8.28882 0.185792C8.69977 0.26944 9.10448 0.39456 9.49109 0.557777C9.87047 0.718793 10.2364 0.916955 10.5783 1.14821C10.9168 1.37726 11.2356 1.63906 11.5252 1.92742C11.8143 2.21734 12.0775 2.53442 12.3059 2.87331C12.5378 3.2141 12.7362 3.57986 12.8962 3.95929C13.06 4.34469 13.185 4.74911 13.2694 5.16042C13.3559 5.58081 13.4 6.01395 13.4 6.4471ZM4.66766 1.5105C3.14351 2.22921 2.00595 3.63162 1.65124 5.32178C1.79533 5.32303 4.07295 5.35174 6.69713 4.6555C5.75116 2.97721 4.74049 1.60758 4.66766 1.5105ZM7.14997 5.49593C4.33577 6.33723 1.6353 6.27669 1.53844 6.27297C1.53686 6.33163 1.53405 6.38841 1.53405 6.44709C1.53405 7.84918 2.06376 9.1274 2.93444 10.0939C2.93256 10.0911 4.42828 7.44133 7.3778 6.48891C7.44904 6.4652 7.52156 6.44396 7.59343 6.42338C7.45626 6.1132 7.30653 5.80238 7.14997 5.49593ZM10.6092 2.35091C9.64698 1.50363 8.3835 0.989691 6.99967 0.989691C6.55558 0.989691 6.12461 1.04337 5.71179 1.1426C5.79365 1.25246 6.82028 2.61243 7.75501 4.32627C9.81732 3.55424 10.5958 2.37087 10.6092 2.35091ZM7.96599 7.32774C7.95382 7.33177 7.94165 7.33525 7.92975 7.3396C4.70494 8.46219 3.65184 10.7245 3.64045 10.7492C4.56833 11.4698 5.73214 11.9045 6.99971 11.9045C7.7566 11.9045 8.47757 11.7506 9.13354 11.472C9.0526 10.9951 8.73509 9.32372 7.96599 7.32774ZM10.0539 10.9733C11.2811 10.1463 12.1527 8.83317 12.3959 7.31211C12.2834 7.27591 10.7542 6.79252 8.99006 7.07495C9.70697 9.04223 9.99825 10.6444 10.0539 10.9733ZM8.1757 5.13953C8.30256 5.3998 8.4254 5.6647 8.53883 5.93092C8.57916 6.02643 8.61854 6.12006 8.65697 6.21366C10.5346 5.97773 12.3843 6.37467 12.4634 6.39088C12.4509 5.09708 11.9874 3.90966 11.2206 2.98004C11.2102 2.99467 10.3336 4.25948 8.1757 5.13953Z" fill="white"/>
</svg>
