<svg width="14" height="13" viewBox="0 0 14 13" fill="none" xmlns="http://www.w3.org/2000/svg">
<path fill-rule="evenodd" clip-rule="evenodd" d="M7.00058 0.0559692C5.26242 0.0559692 5.04429 0.0635693 4.36161 0.0946363C3.68027 0.125837 3.2152 0.233704 2.80827 0.391973C2.38733 0.555441 2.03026 0.77411 1.67452 1.12998C1.31852 1.48572 1.09985 1.84279 0.935846 2.26359C0.777177 2.67066 0.669176 3.13587 0.638509 3.81694C0.607976 4.49962 0.599976 4.71788 0.599976 6.45604C0.599976 8.19419 0.607709 8.41166 0.638643 9.09433C0.669976 9.77567 0.777844 10.2407 0.935979 10.6477C1.09958 11.0686 1.31825 11.4257 1.67412 11.7814C2.02972 12.1374 2.38679 12.3566 2.80747 12.5201C3.21467 12.6784 3.67987 12.7862 4.36108 12.8174C5.04376 12.8485 5.26176 12.8561 6.99978 12.8561C8.73806 12.8561 8.95553 12.8485 9.6382 12.8174C10.3195 12.7862 10.7851 12.6784 11.1924 12.5201C11.6132 12.3566 11.9697 12.1374 12.3253 11.7814C12.6813 11.4257 12.9 11.0686 13.064 10.6478C13.2213 10.2407 13.3293 9.77554 13.3613 9.09446C13.392 8.41179 13.4 8.19419 13.4 6.45604C13.4 4.71788 13.392 4.49975 13.3613 3.81707C13.3293 3.13573 13.2213 2.67066 13.064 2.26373C12.9 1.84279 12.6813 1.48572 12.3253 1.12998C11.9693 0.773977 11.6133 0.555308 11.192 0.391973C10.7839 0.233704 10.3186 0.125837 9.63727 0.0946363C8.9546 0.0635693 8.73726 0.0559692 6.99858 0.0559692H7.00058ZM6.42641 1.2093C6.59681 1.20903 6.78695 1.2093 7.00055 1.2093C8.70937 1.2093 8.9119 1.21543 9.58671 1.2461C10.2107 1.27463 10.5494 1.3789 10.775 1.4665C11.0737 1.5825 11.2866 1.72117 11.5105 1.94517C11.7345 2.16917 11.8731 2.38251 11.9894 2.68118C12.077 2.90651 12.1814 3.24518 12.2098 3.86919C12.2405 4.54386 12.2471 4.74653 12.2471 6.45455C12.2471 8.16257 12.2405 8.36524 12.2098 9.03991C12.1813 9.66392 12.077 10.0026 11.9894 10.2279C11.8734 10.5266 11.7345 10.7393 11.5105 10.9631C11.2865 11.1871 11.0738 11.3258 10.775 11.4418C10.5497 11.5298 10.2107 11.6338 9.58671 11.6623C8.91203 11.693 8.70937 11.6997 7.00055 11.6997C5.2916 11.6997 5.08906 11.693 4.41439 11.6623C3.79038 11.6335 3.45171 11.5293 3.22598 11.4417C2.92731 11.3257 2.71397 11.187 2.48997 10.963C2.26597 10.739 2.1273 10.5262 2.01103 10.2274C1.92343 10.0021 1.81903 9.66339 1.79063 9.03938C1.75996 8.36471 1.75383 8.16204 1.75383 6.45295C1.75383 4.74387 1.75996 4.54226 1.79063 3.86759C1.81916 3.24358 1.92343 2.90491 2.01103 2.67931C2.12703 2.38064 2.26597 2.16731 2.48997 1.9433C2.71397 1.7193 2.92731 1.58063 3.22598 1.46437C3.45158 1.37636 3.79038 1.27236 4.41439 1.2437C5.00479 1.21703 5.2336 1.20903 6.42641 1.2077V1.2093ZM10.4169 2.27198C9.99285 2.27198 9.64885 2.61558 9.64885 3.03972C9.64885 3.46372 9.99285 3.80773 10.4169 3.80773C10.8409 3.80773 11.1849 3.46372 11.1849 3.03972C11.1849 2.61571 10.8409 2.27198 10.4169 2.27198ZM7.00059 3.16932C5.1855 3.16932 3.71389 4.64093 3.71389 6.45602C3.71389 8.2711 5.1855 9.74205 7.00059 9.74205C8.81567 9.74205 10.2868 8.2711 10.2868 6.45602C10.2868 4.64093 8.81567 3.16932 7.00059 3.16932ZM7.00056 4.32266C8.17871 4.32266 9.13392 5.27774 9.13392 6.45602C9.13392 7.63416 8.17871 8.58937 7.00056 8.58937C5.82228 8.58937 4.86721 7.63416 4.86721 6.45602C4.86721 5.27774 5.82228 4.32266 7.00056 4.32266Z" fill="white"/>
</svg>
