<svg width="14" height="10" viewBox="0 0 14 10" fill="none" xmlns="http://www.w3.org/2000/svg">
<path fill-rule="evenodd" clip-rule="evenodd" d="M12.0008 0.330695C12.5515 0.481827 12.9853 0.927137 13.1325 1.49264C13.4 2.51755 13.4 4.65603 13.4 4.65603C13.4 4.65603 13.4 6.79444 13.1325 7.81942C12.9853 8.38492 12.5515 8.83023 12.0008 8.98144C11.0027 9.25603 6.99998 9.25603 6.99998 9.25603C6.99998 9.25603 2.99728 9.25603 1.9991 8.98144C1.44834 8.83023 1.01459 8.38492 0.867394 7.81942C0.599976 6.79444 0.599976 4.65603 0.599976 4.65603C0.599976 4.65603 0.599976 2.51755 0.867394 1.49264C1.01459 0.927137 1.44834 0.481827 1.9991 0.330695C2.99728 0.0560303 6.99998 0.0560303 6.99998 0.0560303C6.99998 0.0560303 11.0027 0.0560303 12.0008 0.330695ZM5.79999 2.85599V6.85599L8.99999 4.85606L5.79999 2.85599Z" fill="white"/>
</svg>
